# xmcd
#
# Track frame offsets:
# 150
# 23692
# 35799
# 60644
# 76998
# 99690
# 110623
# 137242
# 160622
# 172861
# 195478
# 216653
# 235855
# 257314
#
# Disc length: 3571 seconds
#
#
# Revision: 0
# Processed by: cddbd v1.4PL0 Copyright (c) Steve Scherf et al.
# Submitted via: FreeRIP 2.11 
#
DISCID=b80df10e
DTITLE=Pappos Blues - Blues Local
DYEAR=1900
DGENRE=
TTITLE0=Longchamps Boogie
TTITLE1=Mi Vieja
TTITLE2=Buscando El Tesoro De Borneo
TTITLE3=Saco Italiano
TTITLE4=La Almeja
TTITLE5=Blues Local
TTITLE6=Pequeña Ala
TTITLE7=Una Casa Con 10 Pinos
TTITLE8=El Tropez N
TTITLE9=El Hombre Oculto
TTITLE10=Dr. Tazo
TTITLE11=Blues Del Perro
TTITLE12=Dos Bajistas
TTITLE13=Nacido Bajo Un Signo Malo
EXTD=
EXTT0=
EXTT1=
EXTT2=
EXTT3=
EXTT4=
EXTT5=
EXTT6=
EXTT7=
EXTT8=
EXTT9=
EXTT10=
EXTT11=
EXTT12=
EXTT13=
PLAYORDER=
